<?xml version="1.0" encoding="iso-8859-1"?>
<!-- Uploaded to: SVG Repo, www.svgrepo.com, Generator: SVG Repo Mixer Tools -->
<svg height="800px" width="800px" version="1.1" id="Capa_1" xmlns="http://www.w3.org/2000/svg" xmlns:xlink="http://www.w3.org/1999/xlink" 
	 viewBox="0 0 263.633 263.633" xml:space="preserve">
<g>
	<path style="fill:#030104;" d="M189.576,66.372L189.576,66.372H48.783c-57.766,84.66-60.272,149.767-18.335,197.261h175.258
		C243.83,216.872,242.653,149.204,189.576,66.372z M195.838,252.665H40.069C2.796,210.455,5.025,152.587,56.367,77.341h125.138
		C228.678,150.962,229.723,211.104,195.838,252.665z"/>
	<path id="_237276784" style="fill:#030104;" d="M25.861,156.443h183.374c7.414,31.01,2.021,59.324-12.811,88.313H40.019
		C20.451,214.417,17.772,187.453,25.861,156.443L25.861,156.443z"/>
	<path style="fill:#030104;" d="M216.268,6.03l-9.23,17.484c24.371,6.905,38.047,36.604,35.945,84.666
		c-0.166,3.159,18.282,3.679,18.549-0.012C264.284,62.614,246.946,19.467,216.268,6.03z"/>
	<path style="fill:#030104;" d="M216.268,6.03L216.268,6.03c-3.857-1.705-7.709-3.294-12.305-0.398
		c-23.349,23.597-27.861,37.671-44.854-1.447L29.339,0l0,0l5.966,17.348l6.561,19.056l6.94,20.199l140.77-0.022l17.461-33.066
		L216.268,6.03C216.267,6.03,216.268,6.03,216.268,6.03z"/>
</g>
</svg>